<svg id="Capa_1" enable-background="new 0 0 512 512" height="512" viewBox="0 0 512 512" width="512" xmlns="http://www.w3.org/2000/svg"><g><path d="m1 117.242v129.725c0 3.872 1.497 7.594 4.179 10.388l240 250.033c2.828 2.946 6.736 4.612 10.821 4.612s7.993-1.666 10.821-4.612l104.719-109.097c4.278-4.458 5.387-11.083 2.791-16.689-2.211-4.773-3.331-9.692-3.331-14.619 0-19.303 15.701-35.006 35-35.006 4.59 0 9.092.902 13.38 2.681 5.711 2.369 12.29.992 16.569-3.468l70.872-73.837c2.682-2.793 4.179-6.515 4.179-10.387v-129.724z" fill="#ff9d21"/><path d="m256 512c4.085 0 7.993-1.666 10.821-4.612l104.719-109.097c4.278-4.458 5.387-11.083 2.791-16.689-2.211-4.773-3.331-9.692-3.331-14.619 0-19.303 15.701-35.006 35-35.006 4.59 0 9.092.902 13.38 2.681 5.711 2.369 12.29.992 16.569-3.468l70.872-73.837c2.682-2.793 4.179-6.515 4.179-10.387v-129.724h-255z" fill="#ff7038"/><path d="m256 382.328c-4.085 0-7.993-1.666-10.821-4.612l-240-250.033c-5.572-5.805-5.571-14.971 0-20.775 14.656-15.269 31.05-29.431 48.726-42.093 3.314-2.374 7.45-3.296 11.459-2.557 4.008.74 7.542 3.08 9.79 6.48 4.66 7.052 12.453 11.262 20.846 11.262 13.785 0 25-11.218 25-25.006 0-3.439-.742-6.848-2.205-10.13-1.662-3.728-1.733-7.972-.198-11.753 1.536-3.781 4.547-6.774 8.337-8.287 63.482-25.336 132.519-31.421 199.643-17.598 68.949 14.198 131.276 48.667 180.244 99.682 5.571 5.805 5.571 14.971 0 20.775l-240 250.033c-2.828 2.946-6.736 4.612-10.821 4.612z" fill="#ffde46"/><path d="m326.577 7.226c-23.399-4.818-47.03-7.21-70.577-7.218v382.321c4.085 0 7.993-1.666 10.821-4.612l240-250.033c5.571-5.805 5.571-14.971 0-20.775-48.967-51.016-111.295-85.485-180.244-99.683z" fill="#ff9d21"/><path d="m356 179.956c-30.327 0-55-24.675-55-55.005s24.673-55.006 55-55.006 55 24.676 55 55.006-24.673 55.005-55 55.005z" fill="#ff7038"/><g fill="#ff9d21"><path d="m256 279.97c-24.813 0-45-20.188-45-45.004s20.187-45.004 45-45.004 45 20.188 45 45.004-20.187 45.004-45 45.004z"/><ellipse cx="161" cy="159.956" rx="15" ry="15.002"/><ellipse cx="231" cy="79.945" rx="15" ry="15.002"/></g><path d="m301 234.966c0-24.815-20.187-45.004-45-45.004v90.008c24.813 0 45-20.189 45-45.004z" fill="#ff7038"/></g></svg>