<svg id="Capa_1" enable-background="new 0 0 512 512" height="512" viewBox="0 0 512 512" width="512" xmlns="http://www.w3.org/2000/svg"><g><g><g clip-rule="evenodd" fill-rule="evenodd"><path d="m156.257 233.867c0-57.574 46.673-104.247 104.247-104.247s104.246 46.673 104.246 104.247-46.673 104.247-104.247 104.247-104.246-46.673-104.246-104.247zm256.014 191.453c56.904-30.396 92.229-106.654 92.229-184.352 0-107.346-87.021-194.367-194.367-194.367-55.587 0-105.725 23.335-141.15 60.743-64.161-34.5-161.483 65.364-122.489 134.604 9.397 16.687 25.288 34.957-5.047 63.532-18.963 17.863-33.947 46.001-33.947 70.124 0 61.451 49.816 111.267 111.267 111.267 27.509 0 53.061-9.556 72.104-26.526 82.679-73.68 110.256 15.342 221.4-35.025z" fill="#e4e8ed"/><path d="m156.257 233.867c0-57.574 46.673-104.247 104.247-104.247s104.246 46.673 104.246 104.247-46.673 104.247-104.247 104.247-104.246-46.673-104.246-104.247zm104.246 119.247c65.853 0 119.247-53.393 119.247-119.246s-53.393-119.246-119.247-119.246-119.247 53.393-119.247 119.246 53.394 119.246 119.247 119.246z" fill="#c8d1da"/><ellipse cx="260.503" cy="233.867" fill="#ffe477" rx="104.247" ry="104.247" transform="matrix(.707 -.707 .707 .707 -89.07 252.702)"/><path d="m86.804 73.806c18.213-.892 34.469-12.499 36.308-25.926s-11.436-23.588-29.649-22.696-34.469 12.5-36.308 25.926c-1.839 13.427 11.435 23.588 29.649 22.696z" fill="#e4e8ed"/><path d="m151.457 101.279c-62.652-11.142-140.539 77.499-104.963 140.669 9.397 16.687 25.288 34.957-5.047 63.532-18.963 17.863-33.947 46.001-33.947 70.124 0 66.272 57.049 117.117 122.646 110.715-56.229-5.581-100.146-53.018-100.146-110.715 0-24.122 14.984-52.261 33.947-70.124 30.335-28.575 14.444-46.845 5.047-63.532-31.397-55.749 25.579-131.337 82.463-140.669z" fill="#c8d1da"/><path d="m271.753 337.508c-122.745-13.173-122.745-194.109 0-207.282-61.555-6.604-115.496 41.456-115.496 103.641s53.942 110.246 115.496 103.641z" fill="#ffd442"/><path d="m86.804 73.806c3.22-.158 6.378-.652 9.407-1.43-29.37-8.568-16.522-38.857 10.346-45.761-3.906-1.139-8.33-1.663-13.093-1.43-18.213.892-34.469 12.5-36.308 25.926-1.84 13.426 11.434 23.587 29.648 22.695z" fill="#c8d1da"/></g><g><path d="m67.551 442.177c-19.098-16.854-30.051-41.119-30.051-66.573h15c0 21.152 9.104 41.318 24.977 55.327zm-15.051-81.574h-15v-15h15zm422-82.135h-15v-15h15zm0-30h-15c0-44.978-19.36-87.86-53.118-117.652l9.926-11.246c36.981 32.637 58.192 79.618 58.192 128.898zm-156.852-23.794c-8.183-31.81-29.012-50.054-57.146-50.054v-15c18.231 0 34.546 6.162 47.179 17.82 11.413 10.534 19.884 25.574 24.494 43.496zm-72.145-50.053h-15v-15h15z" fill="#fff"/></g></g><g><path d="m46.59 310.939c31.806-29.96 18.731-51.933 9.185-67.977-.971-1.632-1.889-3.173-2.746-4.695-13.386-23.769-9.587-54.941 10.162-83.385l-12.321-8.555c-23.107 33.28-27.185 70.401-10.91 99.3.944 1.678 1.951 3.369 2.924 5.005 9.201 15.463 16.469 27.677-6.58 49.387-21.714 20.457-36.304 50.832-36.304 75.585 0 30.986 11.87 60.315 33.422 82.584l10.778-10.432c-18.83-19.456-29.2-45.08-29.2-72.152 0-20.553 12.99-47.144 31.59-64.665z"/><path d="m310.133 39.101c-28.22 0-55.523 5.712-81.154 16.978-23.078 10.144-43.779 24.316-61.606 42.164-16.308-7.035-34.957-7.283-54.309-.657-18.909 6.474-37.522 19.352-52.413 36.263l11.258 9.912c23.054-26.183 62.153-46.68 93.521-29.812l5.053 2.717 3.945-4.165c35.665-37.66 83.859-58.4 135.705-58.4 103.039 0 186.867 83.828 186.867 186.867 0 74.058-33.013 144.072-82.148 174.22l7.844 12.785c26.948-16.534 49.647-43.414 65.644-77.733 15.478-33.21 23.66-70.996 23.66-109.272 0-111.31-90.558-201.867-201.867-201.867z"/><path d="m297.332 427.809c-33.493-7.375-65.13-14.343-111.451 26.936-17.82 15.88-41.654 24.625-67.114 24.625-23.547 0-45.744-7.688-64.193-22.235l-9.287 11.778c21.121 16.654 46.53 25.457 73.48 25.457 29.144 0 56.523-10.096 77.093-28.427 40.6-36.18 66.039-30.577 98.246-23.485 29.6 6.517 63.146 13.905 114.149-7.237l-5.744-13.856c-46.64 19.333-76.398 12.781-105.179 6.444z"/><path d="m260.503 330.614c-21.684 0-42.18-7.014-59.271-20.283l-9.198 11.849c19.747 15.331 43.423 23.435 68.47 23.435 61.617 0 111.747-50.129 111.747-111.747s-50.13-111.747-111.747-111.747-111.747 50.129-111.747 111.746c0 29.093 11.125 56.645 31.326 77.58l10.794-10.416c-17.489-18.124-27.12-41.977-27.12-67.164 0-53.346 43.4-96.747 96.746-96.747 53.347 0 96.747 43.4 96.747 96.747s-43.4 96.747-96.747 96.747z"/><path d="m84.576 81.361c.857 0 1.723-.021 2.595-.064 21.979-1.076 41.031-15.308 43.372-32.399 1.019-7.439-1.258-14.632-6.41-20.253-6.952-7.585-18.265-11.581-31.037-10.95-21.98 1.076-41.031 15.308-43.372 32.399-1.019 7.439 1.258 14.632 6.41 20.253 6.477 7.067 16.739 11.014 28.442 11.014zm-19.991-29.233c1.347-9.834 14.739-18.742 29.244-19.453.618-.03 1.229-.045 1.834-.045 7.413 0 13.833 2.245 17.41 6.148 2.144 2.34 3.021 5.06 2.607 8.084-1.347 9.834-14.739 18.742-29.244 19.453-8.189.399-15.376-1.881-19.245-6.103-2.143-2.339-3.02-5.059-2.606-8.084z"/></g></g></svg>