<svg id="Capa_1" enable-background="new 0 0 512 512" height="512" viewBox="0 0 512 512" width="512" xmlns="http://www.w3.org/2000/svg"><g><g><g><path d="m432.039 169.246c11.949-11.012 30.677-10.871 42.471.306 4.409 4.178 7.317 9.318 8.729 14.767.699 2.698 2.822 4.821 5.52 5.52 5.448 1.412 10.588 4.32 14.767 8.729 11.177 11.794 11.318 30.522.306 42.471-10.708 11.619-27.982 13.167-40.445 4.652-2.631-1.797-6.151-1.529-8.404.724l-48.668 48.668-28.32-28.32 48.668-48.668c2.253-2.253 2.521-5.774.724-8.404-8.515-12.464-6.967-29.737 4.652-40.445z" fill="#edebed"/><path d="m503.525 198.567c-.005-.006-.011-.011-.016-.017-1.328 4.201-3.56 8.169-6.706 11.582-10.708 11.619-27.982 13.166-40.445 4.652-2.631-1.797-6.151-1.529-8.404.724l-48.668 48.668-9.353-9.353-11.939 11.939 28.32 28.319 48.668-48.668c2.253-2.253 5.774-2.522 8.404-.724 12.463 8.515 29.737 6.967 40.445-4.652 11.012-11.948 10.872-30.676-.306-42.47z" fill="#e2dfe3"/><path d="m191.452 335.266c-40.763 40.763-40.413 107.071 1.051 147.395 40.433 39.322 104.626 39.086 144.784-.517 18.577-18.319 28.756-41.898 30.544-65.983 2.291-30.868 13.961-60.295 33.681-84.153l27.557-33.338c12.756-15.432 11.685-38.033-2.472-52.191-14.157-14.157-36.759-15.228-52.191-2.472l-35.086 29.003c-22.84 18.879-51.009 30.439-80.593 32.117-24.485 1.388-48.569 11.433-67.275 30.139z" fill="#c6855b"/><path d="m426.597 246.479c-7.517-7.517-17.415-11.345-27.356-11.372 10.686 14.148 10.513 34.088-1.077 48.11l-27.557 33.338c-19.72 23.857-31.39 53.285-33.681 84.153-1.787 24.086-11.967 47.664-30.544 65.983-27.971 27.584-67.595 36.046-102.735 25.37 40.355 29.56 96.998 26.219 133.641-9.917 18.577-18.319 28.756-41.897 30.544-65.983 2.291-30.868 13.961-60.296 33.681-84.153l27.557-33.338c12.755-15.432 11.685-38.033-2.473-52.191z" fill="#c17e4e"/></g><g fill="#deb9a2"><circle cx="248.566" cy="472.202" r="7.726"/><circle cx="286.719" cy="472.202" r="7.726"/><circle cx="266.967" cy="442.62" r="7.726"/></g></g><g><g><path d="m79.961 342.754c-11.949 11.012-30.677 10.871-42.471-.306-4.409-4.178-7.317-9.318-8.729-14.767-.699-2.698-2.822-4.821-5.52-5.52-5.448-1.412-10.588-4.32-14.767-8.729-11.177-11.794-11.318-30.522-.306-42.471 10.708-11.619 27.982-13.167 40.445-4.652 2.631 1.797 6.151 1.529 8.404-.724l48.668-48.668 28.32 28.32-48.668 48.668c-2.253 2.253-2.521 5.774-.724 8.404 8.515 12.464 6.967 29.737-4.652 40.445z" fill="#edebed"/><g><path d="m85.337 293.905 48.668-48.668-28.32-28.319-15.453 15.453 12.867 12.867-48.668 48.668c-2.253 2.253-2.522 5.774-.724 8.404 8.515 12.463 6.967 29.736-4.652 40.445-1.743 1.606-3.633 2.968-5.622 4.1 11.503 6.545 26.434 5.202 36.528-4.1 11.619-10.708 13.167-27.982 4.652-40.445-1.797-2.631-1.528-6.152.724-8.405z" fill="#e2dfe3"/></g><path d="m320.548 176.734c40.763-40.763 40.413-107.071-1.051-147.395-40.434-39.322-104.626-39.086-144.785.517-18.577 18.319-28.756 41.898-30.544 65.983-2.291 30.868-13.961 60.295-33.681 84.153l-27.556 33.338c-12.756 15.432-11.685 38.033 2.472 52.191 14.157 14.157 36.759 15.228 52.191 2.472l35.087-29.002c22.84-18.879 51.009-30.439 80.593-32.117 24.484-1.389 48.568-11.434 67.274-30.14z" fill="#c6855b"/><path d="m319.497 29.339c-12.272-11.934-26.737-20.201-42.049-24.853 3.872 2.837 7.603 5.957 11.143 9.4 41.464 40.324 41.814 106.632 1.051 147.395-18.706 18.706-42.79 28.751-67.274 30.139-29.585 1.678-57.754 13.238-80.593 32.117l-35.087 29.003c-7.238 5.983-16.053 8.924-24.834 8.899 1.074 1.423 2.256 2.788 3.549 4.081 14.157 14.157 36.759 15.228 52.191 2.472l35.087-29.003c22.84-18.879 51.009-30.439 80.593-32.117 24.484-1.388 48.569-11.433 67.274-30.139 40.763-40.762 40.413-107.07-1.051-147.394z" fill="#c17e4e"/></g><g fill="#deb9a2"><circle cx="263.434" cy="39.798" r="7.726"/><circle cx="225.281" cy="39.798" r="7.726"/><circle cx="245.033" cy="69.381" r="7.726"/></g></g></g></svg>