<svg id="Capa_1" enable-background="new 0 0 511.984 511.984" height="512" viewBox="0 0 511.984 511.984" width="512" xmlns="http://www.w3.org/2000/svg"><g><g><g><g fill="#de646e"><path d="m82.795 500.241-2.986-39.56-33.057 22.065c-2.539 1.695-2.278 5.498.47 6.832l29.894 14.51c2.746 1.334 5.908-.808 5.679-3.847z"/><path d="m82.795 76.001-2.986 39.56-33.058-22.066c-2.539-1.695-2.278-5.498.47-6.832l29.894-14.51c2.747-1.333 5.909.809 5.68 3.848z"/></g><path d="m124.823 453.385c47.855-104.938 47.855-225.59 0-330.528-9.544-20.928-35.185-28.977-55.027-17.274-17.763 10.477-25.653 31.044-16.892 50.319 38.171 83.98 38.171 180.457 0 264.437-8.694 19.128-.86 39.849 16.892 50.319 19.843 11.704 45.483 3.655 55.027-17.273z" fill="#e17f85"/><path d="m124.823 122.857c-8.8-19.297-31.283-27.63-50.29-19.639 8.655 3.615 16.057 10.356 20.29 19.639 47.855 104.938 47.855 225.59 0 330.528-4.233 9.282-11.635 16.023-20.29 19.639 19.007 7.991 41.49-.341 50.29-19.639 47.856-104.939 47.856-225.59 0-330.528z" fill="#de646e"/></g><g><g fill="#db4955"><path d="m276.053 435.984 2.986-39.56 33.057 22.065c2.539 1.695 2.278 5.498-.47 6.832l-29.894 14.51c-2.746 1.334-5.908-.808-5.679-3.847z"/><path d="m276.053 11.744 2.986 39.56 33.057-22.065c2.539-1.695 2.278-5.498-.47-6.832l-29.894-14.51c-2.746-1.334-5.908.808-5.679 3.847z"/></g><path d="m234.025 389.128c-47.855-104.938-47.855-225.59 0-330.528 9.544-20.928 35.185-28.977 55.027-17.274 17.763 10.477 25.653 31.044 16.892 50.319-38.171 83.98-38.171 180.457 0 264.437 8.694 19.128.86 39.849-16.892 50.319-19.843 11.704-45.483 3.655-55.027-17.273z" fill="#de646e"/><path d="m305.944 91.646c8.761-19.275.871-39.843-16.892-50.319-11.042-6.513-23.877-6.901-34.737-2.365 1.606.676 3.19 1.453 4.737 2.365 17.763 10.477 25.653 31.044 16.892 50.319-38.171 83.979-38.171 180.457 0 264.437 8.694 19.128.859 39.849-16.892 50.319-1.546.912-3.13 1.689-4.737 2.365 10.86 4.536 23.695 4.147 34.737-2.365 17.751-10.471 25.586-31.191 16.892-50.319-38.171-83.98-38.171-180.458 0-264.437z" fill="#db4955"/></g><g><g fill="#de646e"><path d="m389.074 465.984-2.986-39.56-33.058 22.066c-2.539 1.695-2.278 5.498.47 6.832l29.894 14.51c2.747 1.333 5.909-.809 5.68-3.848z"/><path d="m389.074 41.744-2.986 39.56-33.058-22.066c-2.539-1.695-2.278-5.498.47-6.832l29.894-14.51c2.747-1.333 5.909.809 5.68 3.848z"/></g><path d="m431.102 419.128c47.855-104.938 47.855-225.59 0-330.528-9.544-20.928-35.185-28.977-55.027-17.274-17.763 10.477-25.653 31.044-16.892 50.319 38.171 83.98 38.171 180.457 0 264.437-8.694 19.128-.86 39.849 16.892 50.319 19.843 11.704 45.483 3.655 55.027-17.273z" fill="#e17f85"/><path d="m431.102 88.6c-8.8-19.298-31.283-27.631-50.29-19.639 8.655 3.615 16.057 10.356 20.29 19.639 47.855 104.938 47.855 225.59 0 330.528-4.233 9.282-11.635 16.023-20.29 19.639 19.007 7.991 41.49-.342 50.29-19.639 47.856-104.938 47.856-225.59 0-330.528z" fill="#de646e"/></g></g><path d="m103.456 94.84c-4.702-1.48-9.564-2.185-14.402-2.133l1.219-16.14c.308-4.069-1.597-8.024-4.971-10.322-3.38-2.302-7.77-2.626-11.463-.84l-29.881 14.505c-3.69 1.785-6.156 5.433-6.436 9.52s1.666 8.036 5.065 10.299l12.285 8.206c-12.992 13.662-16.831 33.394-8.796 51.071 37.251 81.953 37.962 174.71 0 258.229-8.035 17.678-4.196 37.408 8.795 51.07l-12.29 8.204c-3.399 2.275-5.338 6.222-5.06 10.298.279 4.078 2.737 7.725 6.426 9.521l29.9 14.515c3.675 1.778 8.065 1.462 11.453-.845 3.375-2.298 5.279-6.253 4.971-10.321l-1.22-16.157c4.846.065 9.697-.636 14.403-2.118 12.492-3.934 22.767-13.011 28.191-24.905 48.798-107.006 48.798-229.747 0-336.753-5.422-11.894-15.698-20.971-28.189-24.904zm-28.605-13.252-1.048 13.879c-2.171.782-4.291 1.728-6.342 2.838l-11.383-7.604zm-18.78 403.952 11.403-7.611c2.048 1.108 4.16 2.062 6.328 2.843l1.049 13.885zm61.929-35.267c-3.663 8.032-10.606 14.164-19.048 16.821-8.467 2.665-17.705 1.61-25.344-2.896-15.043-8.873-20.749-25.633-13.875-40.756 13.651-30.034 22.529-61.611 26.645-93.653l21.911-10.631c3.727-1.809 5.282-6.296 3.474-10.022s-6.294-5.281-10.021-3.474l-13.59 6.594c.475-6.419.764-12.849.86-19.281l19.278-9.354c3.727-1.809 5.282-6.296 3.474-10.022s-6.296-5.281-10.021-3.474l-12.908 6.263c-.219-6.106-.605-12.208-1.167-18.298l20.622-10.006c3.727-1.809 5.282-6.296 3.474-10.022s-6.294-5.281-10.021-3.474l-15.922 7.726c-4.332-30.621-13.023-60.774-26.086-89.515-6.874-15.123-1.168-31.883 13.875-40.756 4.868-2.871 10.382-4.341 15.934-4.341 3.163 0 6.338.478 9.411 1.444 8.442 2.658 15.385 8.79 19.048 16.822 46.99 103.051 46.99 221.255-.003 324.305zm203.325-425.096c-.279-4.077-2.737-7.725-6.426-9.521l-29.899-14.515c-3.685-1.782-8.073-1.458-11.453.845-3.375 2.298-5.279 6.253-4.971 10.321l1.219 16.143c-4.838-.051-9.701.652-14.402 2.133-12.492 3.934-22.767 13.011-28.191 24.905-34.096 74.766-44.656 157.102-30.538 238.107.711 4.079 4.595 6.812 8.676 6.101s6.812-4.596 6.101-8.677c-13.597-78.012-3.427-157.306 29.408-229.307 3.663-8.032 10.606-14.164 19.048-16.821 8.466-2.667 17.704-1.61 25.344 2.896 15.043 8.873 20.749 25.633 13.875 40.756-13.063 28.74-21.754 58.894-26.086 89.515l-15.921-7.726c-3.727-1.809-8.213-.253-10.021 3.474s-.253 8.214 3.474 10.022l20.622 10.006c-.562 6.09-.947 12.191-1.167 18.298l-12.907-6.263c-3.727-1.809-8.213-.253-10.021 3.474s-.253 8.214 3.474 10.022l19.278 9.354c.096 6.433.385 12.862.86 19.281l-13.589-6.594c-3.727-1.808-8.213-.253-10.021 3.474s-.253 8.214 3.474 10.022l21.91 10.631c4.116 32.042 12.993 63.619 26.645 93.653 6.874 15.123 1.169 31.883-13.874 40.756-7.641 4.508-16.877 5.562-25.345 2.896-8.442-2.658-15.385-8.79-19.048-16.822-9.029-19.799-16.447-40.496-22.046-61.516-1.066-4.002-5.177-6.384-9.178-5.316-4.002 1.066-6.383 5.175-5.316 9.178 5.814 21.827 13.517 43.318 22.893 63.879 5.424 11.895 15.7 20.972 28.191 24.904 4.701 1.48 9.557 2.184 14.402 2.119l-1.22 16.153c-.308 4.069 1.597 8.024 4.971 10.322 3.391 2.309 7.784 2.62 11.463.84l29.88-14.505c3.69-1.785 6.156-5.433 6.436-9.521.279-4.087-1.666-8.035-5.065-10.298l-12.284-8.206c12.992-13.661 16.831-33.394 8.796-51.071-37.454-82.396-37.131-176.538 0-258.229 8.035-17.678 4.196-37.409-8.795-51.071l12.29-8.203c3.394-2.276 5.333-6.221 5.054-10.298zm-37.328 405.22 1.048-13.881c2.169-.781 4.282-1.735 6.33-2.844l11.394 7.611zm7.388-396.35c-2.05-1.109-4.169-2.055-6.34-2.837l-1.048-13.882 18.779 9.116zm182.751 202.772c-.174-4.138-3.664-7.378-7.808-7.179-4.139.174-7.353 3.669-7.179 7.808 2.568 61.164-9.49 122.912-34.871 178.568-3.664 8.032-10.606 14.164-19.049 16.822-8.468 2.662-17.705 1.608-25.344-2.896-15.043-8.873-20.749-25.633-13.875-40.756 13.651-30.034 22.529-61.611 26.645-93.653l21.91-10.631c3.727-1.809 5.282-6.296 3.474-10.022-1.807-3.726-6.295-5.281-10.021-3.474l-13.589 6.594c.475-6.419.764-12.849.86-19.281l19.278-9.354c3.727-1.809 5.282-6.296 3.474-10.022-1.807-3.726-6.295-5.277-10.021-3.474l-12.907 6.263c-.219-6.106-.605-12.208-1.167-18.298l20.622-10.006c3.727-1.809 5.282-6.296 3.474-10.022-1.807-3.727-6.295-5.281-10.021-3.474l-15.921 7.726c-4.332-30.621-13.023-60.774-26.086-89.515-6.874-15.123-1.168-31.883 13.874-40.756 7.641-4.506 16.879-5.56 25.345-2.896 8.442 2.658 15.385 8.79 19.049 16.822 16.213 35.555 26.975 73.234 31.986 111.992.531 4.107 4.292 7.006 8.399 6.477 4.108-.531 7.008-4.292 6.477-8.4-5.203-40.246-16.378-79.372-33.215-116.293-5.425-11.895-15.7-20.972-28.191-24.905-4.701-1.48-9.564-2.184-14.402-2.133l1.219-16.142c.308-4.069-1.597-8.024-4.971-10.322-3.381-2.302-7.769-2.627-11.463-.84l-29.902 14.513c-3.679 1.792-6.138 5.439-6.417 9.517-.278 4.077 1.66 8.022 5.068 10.304l12.281 8.197c-12.992 13.662-16.83 33.394-8.795 51.071 13.877 30.531 22.582 62.734 26.132 95.364 6.06 55.698-2.528 110.936-26.132 162.865-8.035 17.678-4.196 37.41 8.796 51.071l-12.273 8.198c-3.411 2.271-5.355 6.219-5.076 10.306.28 4.088 2.746 7.735 6.426 9.516l29.899 14.515c3.675 1.778 8.065 1.462 11.453-.845 3.375-2.298 5.279-6.253 4.971-10.321l-1.22-16.154c4.846.065 9.697-.636 14.402-2.118 12.491-3.934 22.767-13.011 28.191-24.905 26.357-57.795 38.878-121.913 36.211-185.422zm-93.005-189.491-1.048 13.882c-2.171.782-4.291 1.727-6.341 2.837l-11.39-7.603zm-18.773 403.955 11.394-7.611c2.048 1.108 4.162 2.062 6.33 2.844l1.048 13.881z"/></g></svg>